# xmcd
#
# Track frame offsets:
#	150
#	9791
#	21485
#	33369
#	45577
#	56931
#	69249
#	77902
#	89939
#	101991
#	112380
#	125503
#	136332
#	148032
#	158020
#	171281
#	181769
#	192721
#	204689
#	217693
#
# Disc length: 3023 seconds
#
# Revision: 0
# Processed by: cddbd v1.5.2PL0 Copyright (c) Steve Scherf et al.
# Submitted via: FairStars CD Ripper 1.80
#
DISCID=2b0bcd14
DTITLE=Sam Cooke - The Songwriter cd1
DYEAR=2015
DGENRE=Soul
TTITLE0=Wonderful World
TTITLE1=Having A Party
TTITLE2=Chain Gang
TTITLE3=Bring It On Home To Me
TTITLE4=Cupid
TTITLE5=You Send Me
TTITLE6=Only Sixteen
TTITLE7=Sad Mood
TTITLE8=Twistin' The Night Away
TTITLE9=Sugar Dumpling
TTITLE10=You Were Made For Me
TTITLE11=Loveable
TTITLE12=Movin' And Groovin'
TTITLE13=I'll Come Running Back To You
TTITLE14=Somebody Have Mercy
TTITLE15=Love Me
TTITLE16=One More Time
TTITLE17=Nothing Can Change This Love
TTITLE18=Win Your Love For Me
TTITLE19=(Don't Fight It) Feel It
EXTD=
EXTT0=
EXTT1=
EXTT2=
EXTT3=
EXTT4=
EXTT5=
EXTT6=
EXTT7=
EXTT8=
EXTT9=
EXTT10=
EXTT11=
EXTT12=
EXTT13=
EXTT14=
EXTT15=
EXTT16=
EXTT17=
EXTT18=
EXTT19=
PLAYORDER=
